<?xml version="1.0" standalone="no"?>
<!DOCTYPE svg PUBLIC "-//W3C//DTD SVG 20010904//EN"
 "http://www.w3.org/TR/2001/REC-SVG-20010904/DTD/svg10.dtd">
<svg version="1.0" xmlns="http://www.w3.org/2000/svg"
 width="363.000000pt" height="363.000000pt" viewBox="0 0 363.000000 363.000000"
 preserveAspectRatio="xMidYMid meet">
<metadata>
Created by potrace 1.11, written by Peter Selinger 2001-2013
</metadata>
<g transform="translate(0.000000,363.000000) scale(0.100000,-0.100000)"
fill="#000000" stroke="none">
<path d="M1963 3589 c-54 -25 -85 -76 -88 -142 -1 -29 -5 -58 -9 -65 -7 -12 0
-73 12 -102 10 -27 9 -100 -2 -100 -7 0 -6 -3 1 -8 18 -11 7 -54 -19 -75 -22
-18 -23 -18 -31 0 -7 17 -56 46 -82 49 -5 1 -14 3 -20 4 -12 2 -34 6 -55 8 -8
1 -30 15 -49 31 -30 26 -122 78 -129 73 -1 -1 -16 5 -33 14 -17 8 -33 13 -36
10 -3 -3 -18 1 -33 9 -15 8 -30 12 -33 9 -3 -3 -14 -1 -24 4 -10 5 -40 13 -68
16 -27 4 -63 9 -78 12 -26 5 -54 -9 -114 -61 -7 -5 -18 -14 -25 -20 -7 -5 -38
-30 -68 -55 -30 -25 -61 -49 -68 -55 -7 -5 -24 -20 -37 -33 -14 -13 -25 -20
-25 -16 0 9 -41 -33 -72 -76 -34 -45 -75 -173 -73 -225 4 -91 27 -123 112
-157 24 -10 49 -23 56 -28 7 -6 23 -19 36 -31 28 -22 33 -41 25 -81 -4 -21
-35 -47 -147 -122 -141 -94 -162 -113 -183 -171 -9 -24 -8 -35 4 -57 9 -16 19
-28 22 -28 3 0 19 -12 35 -26 17 -14 48 -35 69 -46 86 -44 176 -168 222 -306
21 -62 25 -92 24 -181 0 -58 -2 -117 -4 -131 -3 -14 -5 -31 -5 -37 -1 -7 -17
-31 -37 -53 -20 -21 -37 -45 -38 -52 -1 -7 -5 -19 -9 -25 -5 -7 -6 -17 -2 -22
3 -5 0 -13 -6 -16 -5 -4 -8 -13 -5 -20 2 -7 2 -16 -2 -19 -8 -8 -10 -25 -18
-113 -6 -62 -11 -77 -38 -106 -101 -112 -112 -129 -115 -178 -1 -28 6 -43 34
-72 20 -20 40 -37 45 -37 13 0 66 -51 79 -77 15 -30 14 -49 -6 -73 -9 -11 -34
-51 -54 -89 -29 -55 -36 -79 -35 -118 2 -47 7 -58 69 -158 6 -11 22 -30 35
-42 12 -12 22 -25 22 -29 0 -9 63 -74 72 -74 11 0 43 63 40 78 -2 6 2 12 8 12
5 0 10 5 10 12 0 6 20 43 43 82 41 66 60 99 117 201 50 88 85 153 117 218 18
37 35 67 38 67 2 0 27 -20 55 -45 28 -25 57 -45 65 -45 8 0 15 -4 15 -9 0 -22
54 5 79 39 19 26 32 36 41 30 7 -4 10 -14 8 -21 -3 -8 -1 -22 4 -31 6 -12 2
-32 -12 -63 -18 -40 -19 -51 -9 -85 17 -57 50 -70 169 -65 84 4 97 7 112 27
19 24 57 102 63 128 2 8 4 17 5 20 1 3 2 8 1 13 0 4 1 7 4 7 6 0 32 -61 40
-95 4 -16 9 -39 11 -50 11 -46 6 -103 -10 -131 -24 -39 -117 -115 -165 -134
-49 -19 -92 -54 -95 -77 -5 -34 32 -54 88 -47 53 5 89 11 94 14 1 2 5 3 10 4
30 7 52 19 52 28 0 6 3 8 6 5 4 -3 14 -2 24 3 9 5 39 12 66 15 l49 5 -3 -43
c-3 -30 1 -47 12 -56 37 -31 147 -11 179 31 21 28 24 56 12 108 -10 39 -10
219 -2 263 6 27 32 114 44 147 3 8 8 24 10 35 9 39 11 50 13 50 1 0 3 11 5 25
2 14 6 36 10 50 11 45 5 208 -9 262 -13 49 -38 123 -53 158 -15 36 -20 196
-12 406 1 29 -2 57 -6 63 -4 8 5 16 24 24 17 6 31 15 31 19 0 4 6 8 13 8 21 0
44 31 53 70 4 19 9 40 10 45 19 85 31 120 68 203 52 114 58 128 69 172 7 26
19 168 17 210 0 14 -2 97 -4 185 -4 176 -4 176 -39 255 -13 30 -23 65 -22 78
1 12 -2 22 -7 22 -4 0 -7 3 -7 8 1 4 0 10 -1 15 -1 4 -3 11 -4 16 -2 19 -61
89 -88 104 -15 9 -33 28 -40 42 -6 14 -17 25 -25 25 -8 0 -24 7 -38 16 -21 14
-27 14 -62 -3 -33 -16 -42 -17 -65 -5 -28 13 -33 25 -42 99 -4 29 -1 45 9 53
10 9 12 17 5 30 -6 11 -5 21 1 27 6 6 6 19 -1 37 -5 15 -10 48 -10 73 0 43 -4
50 -50 93 -58 56 -85 63 -137 39z m194 -2912 c32 -133 37 -233 12 -263 -5 -6
-6 -14 -2 -17 3 -4 1 -7 -5 -7 -7 0 -12 10 -12 23 0 13 -3 27 -7 30 -3 4 -8
22 -10 39 -1 18 -5 45 -7 59 -2 15 0 48 6 75 5 27 10 57 11 66 1 18 9 16 14
-5z"/>
</g>
</svg>
